<svg xmlns="http://www.w3.org/2000/svg" width="421.49" height="93.412" viewBox="0 0 421.49 93.412"><defs><style>.a{fill:#191919;}</style></defs><g transform="translate(-34.25 -28.27)"><g transform="translate(34.25 28.27)"><g transform="translate(69.622 4.894)"><path class="a" d="M129.863,50.05A41.1,41.1,0,0,0,91.541,75.9c-7.654,19.4,2.645,37.432,22.645,39.645,18.614,2.073,37.381-10.35,42.849-28.329C163.316,66.541,151.275,50.075,129.863,50.05Zm-8.43,50.134c-8.2.064-14.113-5.62-14.33-13.821-.305-11.087,8.938-20.941,19.657-20.941,8.392,0,13.707,5.455,13.757,14.1C140.595,90.674,131.91,100.07,121.434,100.184Z" transform="translate(-89.007 -27.251)"/><path class="a" d="M176.26,43.866c-3.929,21.526-7.553,43.09-11.329,64.629-1.271,7.324-5.048,11.164-10.858,11.189-5.531.038-8.646-3.942-7.578-9.9q5.436-30.42,10.909-60.8c.572-3.128.776-6.37,1.767-9.371,1.7-5.124,7.731-8.646,12.028-7.12C176.743,34.445,177.226,38.615,176.26,43.866Z" transform="translate(-73.457 -32.117)"/><path class="a" d="M282.1,66.512c-3,4.666-8.023,5.849-12.677,3.077-13.2-7.845-24.972-2.734-28.837,12.3-1.526,5.925-.559,11.164,3.891,15.181,4.348,3.929,9.714,4.005,15.016,1.933a75.2,75.2,0,0,0,7.336-3.751c3.395-1.78,6.841-1.869,9.142,1.373,2.327,3.331,1.5,6.917-1.246,9.879-8.443,9.218-27.667,12.079-39.3,5.849-11.087-5.925-15.919-18.627-12.384-32.524,4.412-17.3,20.395-29.676,40.242-29.791a25.966,25.966,0,0,1,16.326,4.921C283.846,58.133,285.092,61.871,282.1,66.512Z" transform="translate(-52.929 -27.26)"/><path class="a" d="M300.625,42.89c-2.632,15.27-5.4,30.5-8.087,45.773-1.17,6.688-2.136,13.414-3.382,20.089-1.03,5.595-3.522,10.07-9.9,10.82-5.569.648-8.913-2.543-8.659-8.7,2.9-16.606,5.874-33.77,8.888-50.91,1.055-6.065,2.136-12.13,3.179-18.195.915-5.251,4.31-8.29,9.167-9.422C297.675,30.963,301.82,36.011,300.625,42.89Z" transform="translate(-39.714 -32.119)"/><path class="a" d="M377.457,66.422c-2.823,4.565-8.544,6.281-12.689,3.153-6.332-4.793-12.74-5.747-19.5-1.564-6.879,4.259-10.057,10.757-9.9,18.818.165,9.727,7.845,15.334,17.5,12.829,3.331-.865,6.179-2.734,9.167-4.387,3.306-1.831,6.675-1.92,9.142,1.322,2.416,3.191,1.5,6.434-.865,9.345-7.349,9.091-26.866,12.638-38.488,7.031-11.329-5.455-16.923-17.864-14.063-31.215,3.929-18.36,20.128-31.609,40.751-31.723a26.3,26.3,0,0,1,16.2,4.87C379.02,58.056,380.3,61.756,377.457,66.422Z" transform="translate(-27.11 -27.26)"/><path class="a" d="M318.112,66.817c-2.238,12.524-4.3,25.074-6.828,37.521a10.221,10.221,0,0,1-12.448,8.074c-4.692-1.106-6.052-4.844-4.768-11.8,1.984-10.833,3.789-21.73,5.607-32.6a11.48,11.48,0,0,1,5.849-8.608,8.628,8.628,0,0,1,9.015-.292C317.527,60.752,318.162,63.6,318.112,66.817Z" transform="translate(-33.462 -25.099)"/><path class="a" d="M234.247,61.008c-2.518,14.876-5,29.753-7.743,44.6-.928,4.959-4.043,8.4-9.409,9.066-5.455.674-8.328-2.212-9.4-8.2-7.642,6.764-15.207,10.528-24.667,8.328-8.023-1.869-12.8-7.031-12.6-15.27.343-14.279,3.8-28.163,6.739-42.073,1.081-5.149,7.5-8.4,12.1-6.891,5.378,1.805,5.862,5.951,4.87,10.871-1.577,7.921-2.9,15.881-4.336,23.828-1.322,7.247.547,11.876,5.353,13.351,6.1,1.869,12.906-1.6,15.309-8.188,2.772-7.642,3.077-15.83,4.717-23.726.648-3.1.814-6.408,1.971-9.32,2.022-5.022,6-7.934,11.583-6.841C234.514,51.663,235.048,56.2,234.247,61.008Z" transform="translate(-66.904 -27.211)"/><path class="a" d="M319.65,48.913A10.785,10.785,0,0,1,308.957,59.3c-5.111-.089-7.82-2.874-7.807-7.972.013-5.582,5.048-10.286,10.757-10.3C317.031,41.03,319.752,43.789,319.65,48.913Zm-2.912.2c-.534-3.1-2.3-5.315-5.429-5.035-3.916.356-6.675,2.8-6.853,6.968-.14,3.28,2.022,5.086,5.226,4.9C313.814,55.716,315.975,53.071,316.738,49.117Z" transform="translate(-31.415 -29.7)"/></g><path class="a" d="M39.85,33.483v-4.4a.819.819,0,0,1,.814-.814h4.374a.819.819,0,0,1,.814.814v4.4a.819.819,0,0,1-.814.814H40.664A.819.819,0,0,1,39.85,33.483Z" transform="translate(-32.73 -28.27)"/><path class="a" d="M51.69,38.223v-4.4a.819.819,0,0,1,.814-.814h4.374a.819.819,0,0,1,.814.814v4.4a.819.819,0,0,1-.814.814H52.5A.819.819,0,0,1,51.69,38.223Z" transform="translate(-29.515 -26.983)"/><g transform="translate(0 9.053)"><path class="a" d="M45.068,61.857a.434.434,0,0,0,.025.191.669.669,0,0,1,.331-.076A.659.659,0,0,1,45.068,61.857Zm-.547-6.383a.669.669,0,0,0,.076-.331V54.33A8.649,8.649,0,0,0,44.521,55.474Zm-.025.89a4.9,4.9,0,0,0-.025.623,20.826,20.826,0,0,0,.14,2.39V56.771A.845.845,0,0,0,44.5,56.364Z" transform="translate(-31.475 -30.248)"/><path class="a" d="M78.052,51.029c6.6,0,11.253,1.958,16.567,6.141a7.679,7.679,0,0,0,4.857,1.5,8.6,8.6,0,0,0,8.8-8.7c0-3.586-1.742-5.684-4.158-7.413C98.9,38.976,92.051,35.39,79.426,35.39c-8.964,0-17.279,2.721-23.2,7.654H54.212a.819.819,0,0,0-.814.814v4.4a.819.819,0,0,1-.814.814h-4.4a.819.819,0,0,0-.814.814v4.374a.8.8,0,0,1-.814.814H42.184a.8.8,0,0,1-.814-.814V49.885a.8.8,0,0,0-.814-.814H36.183a.8.8,0,0,0-.814.814v4.374a.8.8,0,0,0,.814.814h4.374a.819.819,0,0,1,.814.814v4.4a.819.819,0,0,1-.814.814H36.183a.8.8,0,0,0-.814.814v4.374a.8.8,0,0,0,.814.814h4.374a.8.8,0,0,0,.814-.814V61.913a.8.8,0,0,1,.814-.814h4.374a.839.839,0,0,1,.712.407.7.7,0,0,1,.114.407v4.374a.8.8,0,0,1-.814.814H42.2a.819.819,0,0,0-.814.814v4.4a.819.819,0,0,0,.814.814h4.374a.819.819,0,0,0,.814-.814v-4.4a.808.808,0,0,1,.483-.737.434.434,0,0,1-.025-.191.6.6,0,0,0,.356.114h4.4a.819.819,0,0,1,.814.814v4.4a.819.819,0,0,1-.814.814H50.754c3.662,4.971,9.8,8.2,16.4,10.9,10.9,4.4,13.8,6.713,13.8,10.68,0,5.086-5.213,8.443-12.384,8.443-8.01,0-13.1-2.2-19.937-7.883a9.532,9.532,0,0,0-5.684-2.2,8.688,8.688,0,0,0-8.7,9.04,9.742,9.742,0,0,0,3.471,7.413c8.341,7.171,20.407,9.269,30.02,9.269,17.038,0,32.194-9.968,32.194-27.006,0-11.812-8.341-17.381-19.454-21.895-11-4.539-14.266-6.383-14.266-10.655C66.228,55.187,70.525,51.029,78.052,51.029Zm1.03-7.171a.819.819,0,0,1,.814-.814H84.27a.819.819,0,0,1,.814.814v4.4a.819.819,0,0,1-.814.814H79.9a.819.819,0,0,1-.814-.814Zm0,30.1a.8.8,0,0,1,.814-.814H84.27a.8.8,0,0,1,.814.814v4.374a.8.8,0,0,1-.814.814H79.9a.8.8,0,0,1-.814-.814Zm-10.82,4.4a.819.819,0,0,1,.814-.814H73.45a.819.819,0,0,1,.814.814v4.4a.819.819,0,0,1-.814.814H69.076a.819.819,0,0,1-.814-.814v-4.4ZM53.411,49.885a.8.8,0,0,1,.814-.814H58.6a.8.8,0,0,1,.814.814v4.374a.8.8,0,0,1-.814.814H54.225a.8.8,0,0,1-.814-.814ZM52.6,61.1H48.2a.837.837,0,0,1-.814-.814.7.7,0,0,1-.076.331,8.649,8.649,0,0,1,.076-1.144V55.886a.837.837,0,0,1,.814-.814h4.4a.819.819,0,0,1,.814.814v4.4A.819.819,0,0,1,52.6,61.1Zm6,6H54.225a.8.8,0,0,1-.814-.814V61.913a.8.8,0,0,1,.814-.814H58.6a.8.8,0,0,1,.814.814v4.374A.8.8,0,0,1,58.6,67.1Zm6.841,5.226a.837.837,0,0,1-.814.814h-4.4a.837.837,0,0,1-.814-.814v-4.4a.837.837,0,0,1,.814-.814h4.4a.837.837,0,0,1,.814.814Zm0-12.041a.837.837,0,0,1-.814.814h-4.4a.837.837,0,0,1-.814-.814v-4.4a.837.837,0,0,1,.814-.814h4.4a.837.837,0,0,1,.814.814Zm0-12.028a.837.837,0,0,1-.814.814h-4.4a.837.837,0,0,1-.814-.814v-4.4a.837.837,0,0,1,.814-.814h4.4a.837.837,0,0,1,.814.814Z" transform="translate(-34.25 -35.39)"/><g transform="translate(7.12 7.654)"><path class="a" d="M45.038,41.41H40.664a.819.819,0,0,0-.814.814v4.4a.819.819,0,0,0,.814.814h4.374a.819.819,0,0,0,.814-.814v-4.4A.8.8,0,0,0,45.038,41.41Z" transform="translate(-39.85 -41.41)"/><path class="a" d="M44.51,55.474a.669.669,0,0,0,.076-.331V54.33A8.649,8.649,0,0,0,44.51,55.474Z" transform="translate(-38.585 -37.902)"/><path class="a" d="M44.5,55.93a4.9,4.9,0,0,0-.025.623,20.826,20.826,0,0,0,.14,2.39V56.337A.845.845,0,0,0,44.5,55.93Z" transform="translate(-38.596 -37.468)"/></g></g></g></g></svg>