<svg xmlns="http://www.w3.org/2000/svg" width="327.351" height="147.877" viewBox="0 0 327.351 147.877"><defs><style>.a{fill:#191919;}</style></defs><g transform="translate(-43.24 -184)"><g transform="translate(200.752 206.363)"><path class="a" d="M356.708,221.49l-13.551,44.778-10.84.057-8.691-21.534-8.3,21.624-10.84.057L290.25,221.841l13.225-.07,7.384,25.73,10.515-25.6,4.26-.019,10.974,25.507,6.976-25.826Z" transform="translate(-290.25 -219.946)"/><path class="a" d="M396.14,243.123c-.07-13.665,10.133-23.537,24.506-23.613,14.335-.077,24.6,9.654,24.678,23.358s-10.094,23.537-24.429,23.613C406.515,266.551,396.21,256.788,396.14,243.123Zm24.684,11.9c6.8-.038,11.7-5.089,11.669-12.084s-4.987-11.995-11.791-11.963-11.778,5.127-11.74,12.084,5.057,11.995,11.861,11.963Z" transform="translate(-328.616 -219.229)"/><path class="a" d="M504.208,266.041c-14.373.077-24.678-9.693-24.748-23.358s10.133-23.537,24.506-23.613c14.335-.077,24.6,9.654,24.678,23.358s-10.1,23.537-24.436,23.613ZM515.814,242.5c-.038-7-4.987-11.995-11.791-11.963s-11.778,5.127-11.74,12.084,5.063,11.995,11.867,11.963S515.852,249.493,515.814,242.5Z" transform="translate(-358.805 -219.069)"/><path class="a" d="M341.8,320.239l-12.141.064.179,33.618-12.371.064-.179-33.618-12.148.064-.057-11.089,36.66-.191Z" transform="translate(-295.623 -251.708)"/><path class="a" d="M365.9,330.773c-.07-13.665,10.133-23.537,24.506-23.613,14.335-.077,24.6,9.654,24.678,23.358s-10.094,23.537-24.429,23.613C376.275,354.2,365.97,344.438,365.9,330.773Zm24.684,11.9c6.8-.038,11.7-5.089,11.669-12.084s-4.987-11.995-11.791-11.963-11.778,5.127-11.74,12.084,5.057,11.995,11.861,11.963Z" transform="translate(-317.66 -250.987)"/><path class="a" d="M510.532,308.18l-13.551,44.777-10.84.057-8.692-21.534-8.3,21.624-10.84.057L444.08,308.531l13.225-.07,7.384,25.73,10.515-25.6,4.26-.019,10.974,25.507,6.976-25.826Z" transform="translate(-345.987 -251.356)"/></g><g transform="translate(43.24 184)"><path class="a" d="M117.178,184a73.938,73.938,0,1,0,73.938,73.938A73.936,73.936,0,0,0,117.178,184Zm20.163,100.925a14.534,14.534,0,0,0-3.042,10.2,7.838,7.838,0,0,1-.013,1.161,19.181,19.181,0,0,1-11.58,15.916S108.6,319.321,98.2,304.444a8.8,8.8,0,0,1-.759-1.326c-1.078-2.3-3.679-9.106-.427-15.776,0,0,3.01-6.3,8.334-9.1,0,0,7.282-5.044,7.423-7.352v-7c-.019-.21-.064-.414-.064-.631s.045-.421.064-.631v-1.543a5.131,5.131,0,0,1,4.2-4.623h4.413s4.834,0,4.834,4.834v8.959a8.447,8.447,0,0,1-.312,2.3,33.571,33.571,0,0,1-2.417,6.4s-1.154,3.361-8.927,11.134c0,0-4.094,4.3-.21,8.927,0,0,2.806,3.832,7.352,2.525a7.408,7.408,0,0,0,3.176-1.945,8.321,8.321,0,0,0,2.5-5.414,13.968,13.968,0,0,1,6.619-10.5s2.206-1.263,3.673-.1A1.342,1.342,0,0,1,137.342,284.925Zm-.8-32.209a4.819,4.819,0,0,1-6.836,0,14.937,14.937,0,0,0-21.126,0,4.843,4.843,0,0,1-6.849-6.849,24.614,24.614,0,0,1,34.811.019A4.826,4.826,0,0,1,136.538,252.716Zm13.091-13.072a4.819,4.819,0,0,1-6.836,0,33.484,33.484,0,0,0-47.29,0,4.843,4.843,0,0,1-6.849-6.849,43.144,43.144,0,0,1,60.974,0A4.849,4.849,0,0,1,149.63,239.643Zm13.283-13.3a4.819,4.819,0,0,1-6.836,0,52.258,52.258,0,0,0-73.843,0,4.843,4.843,0,0,1-6.849-6.849,61.988,61.988,0,0,1,87.527,0A4.861,4.861,0,0,1,162.912,226.348Z" transform="translate(-43.24 -184)"/></g></g></svg>